<?xml version="1.0" encoding="UTF-8" standalone="no"?>
<svg
   width="16"
   height="16"
   fill="currentColor"
   class="bi bi-person"
   viewBox="0 0 16 16"
   version="1.1"
   id="svg1"
   sodipodi:docname="person1.svg"
   inkscape:version="1.4 (86a8ad7, 2024-10-11)"
   xmlns:inkscape="http://www.inkscape.org/namespaces/inkscape"
   xmlns:sodipodi="http://sodipodi.sourceforge.net/DTD/sodipodi-0.dtd"
   xmlns="http://www.w3.org/2000/svg"
   xmlns:svg="http://www.w3.org/2000/svg">
  <defs
     id="defs1" />
  <sodipodi:namedview
     id="namedview1"
     pagecolor="#ffffff"
     bordercolor="#000000"
     borderopacity="0.25"
     inkscape:showpageshadow="2"
     inkscape:pageopacity="0.0"
     inkscape:pagecheckerboard="0"
     inkscape:deskcolor="#d1d1d1"
     showgrid="false"
     inkscape:zoom="50.9375"
     inkscape:cx="8.009816"
     inkscape:cy="8"
     inkscape:window-width="1920"
     inkscape:window-height="1017"
     inkscape:window-x="-8"
     inkscape:window-y="-8"
     inkscape:window-maximized="1"
     inkscape:current-layer="svg1" />
  <path
     d="M8 8a3 3 0 1 0 0-6 3 3 0 0 0 0 6m2-3a2 2 0 1 1-4 0 2 2 0 0 1 4 0m4 8c0 1-1 1-1 1H3s-1 0-1-1 1-4 6-4 6 3 6 4m-1-.004c-.001-.246-.154-.986-.832-1.664C11.516 10.68 10.289 10 8 10s-3.516.68-4.168 1.332c-.678.678-.83 1.418-.832 1.664z"
     id="path1" />
  <path
     style="fill:#ffffff;stroke-width:0.0196628"
     d="m 2.7610006,13.956604 c -0.353179,-0.08549 -0.6018417,-0.305021 -0.7041647,-0.621671 -0.1159263,-0.358747 0.0067,-1.020655 0.2994776,-1.61657 0.6605706,-1.344495 2.0486726,-2.2546406 3.9178833,-2.5688636 1.0967712,-0.1843723 2.3847176,-0.1840019 3.4625145,9.957e-4 1.8721397,0.3213422 3.2448417,1.2240659 3.9076167,2.5697499 0.291864,0.592596 0.41468,1.256197 0.298836,1.614688 -0.07844,0.242735 -0.238541,0.426515 -0.466236,0.535183 -0.262834,0.12544 0.129578,0.117166 -5.486744,0.115688 -4.3453748,-0.0011 -5.1314078,-0.0055 -5.2291834,-0.0292 z M 13.00562,12.912883 c -0.07924,-0.580146 -0.3811,-1.143454 -0.866344,-1.616708 -0.75436,-0.735717 -1.828952,-1.146826 -3.334368,-1.275637 -0.3537712,-0.03027 -1.2560448,-0.03027 -1.609816,0 -1.4972902,0.128115 -2.5764967,0.538974 -3.3250576,1.265865 -0.4924326,0.478177 -0.7957691,1.041608 -0.8756543,1.62648 l -0.012737,0.09325 H 8 13.018357 Z"
     id="path2" />
  <path
     style="fill:#ffffff;stroke-width:0.0196628"
     d="M 7.7840491,7.9771275 C 6.8614518,7.9213467 5.9680764,7.3824135 5.4625756,6.5766871 4.9963999,5.8336416 4.88636,4.9077589 5.164382,4.0676659 5.5028511,3.0449207 6.3339235,2.3061056 7.4141756,2.0676215 7.576865,2.0317051 7.669345,2.0249724 8,2.0249724 c 0.4319874,0 0.6004835,0.025486 0.9560363,0.1446073 C 10.505957,2.6888507 11.352215,4.3916454 10.83326,5.946828 10.680817,6.4036621 10.415868,6.8148366 10.046349,7.1680342 9.4395072,7.7480717 8.6522701,8.0296206 7.7840491,7.9771275 Z M 8.3425272,6.9763936 C 9.0450982,6.8755355 9.6874099,6.3216116 9.9100916,5.6245399 9.9852411,5.3892953 10.00192,5.2685613 9.9995899,4.9766871 9.9976805,4.7375399 9.9890976,4.6606347 9.9459102,4.4957055 9.7139832,3.6099937 8.9156753,2.993865 8,2.993865 c -0.9151902,0 -1.7141061,0.616598 -1.9459103,1.5018405 -0.043187,0.1649292 -0.05177,0.2418344 -0.05368,0.4809816 -0.00233,0.2918742 0.014349,0.4126082 0.089498,0.6478528 0.1727261,0.540693 0.6174917,1.0197518 1.1465646,1.2349689 0.3456949,0.1406223 0.6884123,0.1768399 1.1060549,0.1168848 z"
     id="path3" />
</svg>
