<?xml version="1.0" encoding="UTF-8" standalone="no"?>
<svg
   width="16"
   height="16"
   fill="currentColor"
   class="bi bi-person-gear"
   viewBox="0 0 16 16"
   version="1.1"
   id="svg1"
   sodipodi:docname="person-gear1.svg"
   inkscape:version="1.4 (86a8ad7, 2024-10-11)"
   xmlns:inkscape="http://www.inkscape.org/namespaces/inkscape"
   xmlns:sodipodi="http://sodipodi.sourceforge.net/DTD/sodipodi-0.dtd"
   xmlns="http://www.w3.org/2000/svg"
   xmlns:svg="http://www.w3.org/2000/svg">
  <defs
     id="defs1" />
  <sodipodi:namedview
     id="namedview1"
     pagecolor="#ffffff"
     bordercolor="#000000"
     borderopacity="0.25"
     inkscape:showpageshadow="2"
     inkscape:pageopacity="0.0"
     inkscape:pagecheckerboard="0"
     inkscape:deskcolor="#d1d1d1"
     inkscape:zoom="50.9375"
     inkscape:cx="8.009816"
     inkscape:cy="8"
     inkscape:window-width="1920"
     inkscape:window-height="1017"
     inkscape:window-x="-8"
     inkscape:window-y="-8"
     inkscape:window-maximized="1"
     inkscape:current-layer="svg1" />
  <path
     d="M11 5a3 3 0 1 1-6 0 3 3 0 0 1 6 0M8 7a2 2 0 1 0 0-4 2 2 0 0 0 0 4m.256 7a4.5 4.5 0 0 1-.229-1.004H3c.001-.246.154-.986.832-1.664C4.484 10.68 5.711 10 8 10q.39 0 .74.025c.226-.341.496-.65.804-.918Q8.844 9.002 8 9c-5 0-6 3-6 4s1 1 1 1zm3.63-4.54c.18-.613 1.048-.613 1.229 0l.043.148a.64.64 0 0 0 .921.382l.136-.074c.561-.306 1.175.308.87.869l-.075.136a.64.64 0 0 0 .382.92l.149.045c.612.18.612 1.048 0 1.229l-.15.043a.64.64 0 0 0-.38.921l.074.136c.305.561-.309 1.175-.87.87l-.136-.075a.64.64 0 0 0-.92.382l-.045.149c-.18.612-1.048.612-1.229 0l-.043-.15a.64.64 0 0 0-.921-.38l-.136.074c-.561.305-1.175-.309-.87-.87l.075-.136a.64.64 0 0 0-.382-.92l-.148-.045c-.613-.18-.613-1.048 0-1.229l.148-.043a.64.64 0 0 0 .382-.921l-.074-.136c-.306-.561.308-1.175.869-.87l.136.075a.64.64 0 0 0 .92-.382zM14 12.5a1.5 1.5 0 1 0-3 0 1.5 1.5 0 0 0 3 0"
     id="path1" />
  <path
     style="fill:#ffffff;stroke-width:0.0196628"
     d="M 2.7610006,13.956604 C 2.4078216,13.871114 2.1591589,13.651583 2.0568359,13.334933 1.9409096,12.976186 2.0635313,12.314278 2.3563135,11.718363 3.0154587,10.376769 4.3927073,9.4715697 6.2632887,9.1504951 6.9281319,9.0363786 7.7255566,8.9892486 8.4503495,9.0212337 c 0.4097583,0.018083 0.9638746,0.065768 1.0283838,0.0885 0.016141,0.00569 -0.043312,0.078032 -0.1570552,0.191111 C 9.1294742,9.4919259 8.9537679,9.6982289 8.81761,9.8926888 L 8.736387,10.00869 8.4761689,10.00069 C 6.8029119,9.94908 5.5166599,10.19738 4.5694334,10.754853 3.6969557,11.268333 3.1089616,12.07395 2.994391,12.912835 l -0.012726,0.09318 2.5171023,0.005 2.5171021,0.005 0.044699,0.265031 c 0.024584,0.145766 0.074924,0.364417 0.111865,0.485889 l 0.067166,0.220859 -2.6817631,-0.0016 c -2.2443267,-0.0014 -2.7005331,-0.0062 -2.796836,-0.02949 z"
     id="path2" />
  <path
     style="fill:#ffffff;stroke-width:0.0196628"
     d="m 12.293594,15.954197 c -0.20864,-0.07448 -0.338022,-0.226751 -0.422283,-0.497005 -0.11605,-0.372214 -0.333007,-0.54 -0.677914,-0.524274 -0.134867,0.0061 -0.174215,0.01764 -0.338046,0.09868 -0.226382,0.111989 -0.245616,0.117723 -0.392541,0.11702 -0.329971,-0.0016 -0.6133694,-0.294948 -0.6133694,-0.63495 0,-0.124255 0.00844,-0.151953 0.1040679,-0.341532 C 10.04427,13.992204 10.058769,13.94725 10.0669,13.820545 10.07791,13.649002 10.04107,13.514005 9.9478083,13.384141 9.8651293,13.269014 9.7488282,13.1964 9.5307499,13.123747 9.4299168,13.090154 9.3115195,13.036666 9.2676449,13.004883 9.0523956,12.848957 8.9580374,12.555066 9.0429308,12.304981 c 0.074464,-0.219362 0.2191548,-0.346126 0.4890343,-0.428444 0.2728425,-0.08322 0.4217451,-0.208135 0.5022389,-0.421322 0.03285,-0.08701 0.03904,-0.13847 0.03185,-0.265031 -0.008,-0.140849 -0.01962,-0.178807 -0.1126162,-0.367857 -0.095686,-0.194519 -0.1036303,-0.221362 -0.1028407,-0.3475 0.00106,-0.169936 0.06241,-0.315267 0.1846479,-0.437435 0.132312,-0.1322378 0.250085,-0.1808892 0.439586,-0.1815911 0.153357,-5.68e-4 0.164883,0.00276 0.371797,0.1073893 0.207185,0.1047658 0.218238,0.1079508 0.371797,0.1071478 0.120569,-6.31e-4 0.181386,-0.01129 0.255343,-0.04476 0.217943,-0.09863 0.304116,-0.2021122 0.394249,-0.4734399 0.03574,-0.1075997 0.09194,-0.2348049 0.124875,-0.2826781 0.160673,-0.2335316 0.495789,-0.3220372 0.760658,-0.2008933 0.199182,0.0911 0.282293,0.1951486 0.369609,0.4627226 0.122822,0.3763779 0.316507,0.5372987 0.648802,0.5390497 0.151123,7.95e-4 0.165933,-0.0034 0.380947,-0.1071478 0.211667,-0.1021622 0.23174,-0.1079436 0.372826,-0.1073841 0.178764,7.089e-4 0.289496,0.04443 0.4221,0.1666599 0.13439,0.123877 0.19818,0.269094 0.19818,0.451154 0,0.138018 -0.0068,0.161378 -0.107975,0.373006 -0.103886,0.217215 -0.107925,0.231715 -0.106649,0.382822 0.0028,0.33652 0.166638,0.528107 0.561603,0.656886 0.144602,0.04715 0.212022,0.08138 0.282534,0.143444 0.237118,0.20872 0.276964,0.586871 0.0888,0.842736 -0.08651,0.117629 -0.191879,0.184734 -0.39188,0.249561 -0.212695,0.06894 -0.286851,0.111387 -0.385641,0.220736 -0.116789,0.129271 -0.155227,0.235239 -0.15604,0.430177 -6.87e-4,0.164697 0.0014,0.172246 0.103972,0.375081 0.123851,0.244929 0.147032,0.379659 0.0932,0.541719 -0.09514,0.286439 -0.327797,0.459474 -0.617477,0.459236 -0.11085,-9e-5 -0.149821,-0.01202 -0.34167,-0.104624 -0.215642,-0.104085 -0.217338,-0.104522 -0.40494,-0.104272 -0.158072,2.1e-4 -0.201961,0.0075 -0.272711,0.04502 -0.190378,0.101085 -0.298254,0.243453 -0.367971,0.485627 -0.04566,0.158615 -0.0895,0.240286 -0.177529,0.330731 -0.158724,0.163082 -0.43904,0.228723 -0.652046,0.152689 z m 0.634013,-2.006077 c 0.259063,-0.08075 0.4351,-0.187709 0.628221,-0.381689 0.199153,-0.20004 0.302412,-0.36169 0.372806,-0.583625 0.130005,-0.40987 0.09927,-0.809327 -0.09046,-1.175685 -0.196196,-0.378849 -0.541769,-0.656706 -0.954023,-0.767077 -0.200013,-0.05355 -0.544418,-0.05746 -0.741825,-0.0084 -0.555563,0.137986 -1.002753,0.599942 -1.117218,1.154105 -0.169439,0.820304 0.339243,1.60709 1.157674,1.790592 0.192953,0.04326 0.560187,0.02936 0.74482,-0.02819 z"
     id="path3" />
  <path
     style="fill:#ffffff;stroke-width:0.0196628"
     d="M 7.7840491,7.9771275 C 6.8614518,7.9213467 5.9680764,7.3824135 5.4625756,6.5766871 4.9963999,5.8336416 4.88636,4.9077589 5.164382,4.0676659 5.5028511,3.0449207 6.3339235,2.3061056 7.4141756,2.0676215 7.576865,2.0317051 7.669345,2.0249724 8,2.0249724 c 0.4319874,0 0.6004835,0.025486 0.9560363,0.1446073 C 10.505957,2.6888507 11.352215,4.3916454 10.83326,5.946828 10.680817,6.4036621 10.415868,6.8148366 10.046349,7.1680342 9.4395072,7.7480717 8.6522701,8.0296206 7.7840491,7.9771275 Z M 8.3425272,6.9763936 C 9.0450982,6.8755355 9.6874099,6.3216116 9.9100916,5.6245399 9.9852411,5.3892953 10.00192,5.2685613 9.9995899,4.9766871 9.9976805,4.7375399 9.9890976,4.6606347 9.9459102,4.4957055 9.7139832,3.6099937 8.9156753,2.993865 8,2.993865 c -0.9151902,0 -1.7141061,0.616598 -1.9459103,1.5018405 -0.043187,0.1649292 -0.05177,0.2418344 -0.05368,0.4809816 -0.00233,0.2918742 0.014349,0.4126082 0.089498,0.6478528 0.1727261,0.540693 0.6174917,1.0197518 1.1465646,1.2349689 0.3456949,0.1406223 0.6884123,0.1768399 1.1060549,0.1168848 z"
     id="path4" />
</svg>
